<?xml version="1.0" encoding="UTF-8"?>
<svg version="1.1" xmlns="http://www.w3.org/2000/svg" width="1024" height="1024">
<path d="M0 0 C0.77265701 -0.00705963 1.54531403 -0.01411926 2.34138489 -0.02139282 C41.41776893 -0.29703547 76.98408112 6.44624592 111.6796875 25.203125 C112.2782959 25.52249023 112.8769043 25.84185547 113.49365234 26.17089844 C132.20526231 36.21774271 148.34962998 49.60405075 163.6796875 64.203125 C164.63101562 65.10546875 165.58234375 66.0078125 166.5625 66.9375 C168.6796875 69.203125 168.6796875 69.203125 168.6796875 71.203125 C169.3396875 71.203125 169.9996875 71.203125 170.6796875 71.203125 C172.45521127 73.22752561 174.10761151 75.2562315 175.7421875 77.390625 C176.23098389 78.02266846 176.71978027 78.65471191 177.22338867 79.3059082 C184.00878209 88.15215686 190.38032778 97.11918572 195.48828125 107.05859375 C196.61950283 109.32608774 196.61950283 109.32608774 198.6796875 111.203125 C212.58817858 140.77865201 222.14202138 174.29848482 221.6796875 207.203125 C215.09920502 209.56722426 208.50561081 211.21908614 201.6796875 212.703125 C171.60090073 219.48004723 141.92863096 227.92471453 112.64611816 237.55718994 C110.74931307 238.18025433 108.8507612 238.79799322 106.95214844 239.41552734 C83.02656048 247.23572835 59.402705 256.36405634 36.53515625 266.90234375 C35.59189484 267.33447174 35.59189484 267.33447174 34.62957764 267.77532959 C31.71374949 269.11402138 28.81213969 270.4742232 25.92529297 271.87451172 C24.91740723 272.34518066 23.90952148 272.81584961 22.87109375 273.30078125 C21.57473999 273.92738647 21.57473999 273.92738647 20.25219727 274.56665039 C15.06231853 275.8506984 10.31957681 272.64787446 5.7265625 270.40234375 C-20.55596929 257.73865982 -47.63849086 247.40385989 -75.3203125 238.203125 C-76.79056885 237.71175049 -76.79056885 237.71175049 -78.29052734 237.21044922 C-81.27613227 236.21780388 -84.26579553 235.23875673 -87.2578125 234.265625 C-88.15209961 233.97059082 -89.04638672 233.67555664 -89.96777344 233.37158203 C-93.93313998 232.10384122 -97.67620259 231.06859001 -101.82421875 230.63671875 C-105.3203125 230.203125 -105.3203125 230.203125 -107.3203125 228.203125 C-109.59301559 227.44417968 -111.82783114 226.78310504 -114.140625 226.171875 C-114.85167892 225.9796788 -115.56273285 225.7874826 -116.29533386 225.58946228 C-118.67626134 224.9512458 -121.0603734 224.32617314 -123.4453125 223.703125 C-124.26301117 223.48713654 -125.08070984 223.27114807 -125.92318726 223.0486145 C-143.17730949 218.51083757 -160.60153037 214.85626632 -178.08837891 211.33984375 C-179.09637039 211.13637833 -180.10436188 210.9329129 -181.14289856 210.72328186 C-183.04761004 210.34010275 -184.95309294 209.96073308 -186.85942078 209.5856781 C-187.69898819 209.41746048 -188.5385556 209.24924286 -189.40356445 209.07592773 C-190.1394429 208.93066147 -190.87532135 208.7853952 -191.63349915 208.63572693 C-193.3203125 208.203125 -193.3203125 208.203125 -194.3203125 207.203125 C-195.34758053 180.53756201 -189.23401926 152.73996213 -180.5703125 127.703125 C-180.27672852 126.85419678 -179.98314453 126.00526855 -179.68066406 125.13061523 C-177.58260454 119.33427102 -177.58260454 119.33427102 -175.3203125 118.203125 C-174.62387265 116.21329687 -173.9654365 114.21017743 -173.3203125 112.203125 C-169.42036213 102.1124767 -163.20552093 93.91879356 -156.703125 85.35546875 C-155.0526577 83.17198168 -153.4226654 80.98210119 -151.8125 78.76953125 C-151.40555908 78.21434814 -150.99861816 77.65916504 -150.5793457 77.0871582 C-149.43869034 75.52943399 -148.3031942 73.9679358 -147.16796875 72.40625 C-146.55824219 71.67921875 -145.94851563 70.9521875 -145.3203125 70.203125 C-144.6603125 70.203125 -144.0003125 70.203125 -143.3203125 70.203125 C-143.05186523 69.61088135 -142.78341797 69.0186377 -142.50683594 68.40844727 C-140.52638522 64.72749843 -137.51918356 62.06478382 -134.5703125 59.140625 C-133.57028198 58.14579102 -133.57028198 58.14579102 -132.55004883 57.13085938 C-126.2062621 50.9225245 -119.46190225 45.45891599 -112.3203125 40.203125 C-111.47210938 39.57148438 -110.62390625 38.93984375 -109.75 38.2890625 C-78.6368234 15.801321 -38.66014835 0.23627824 0 0 Z " fill="#FEC830" transform="translate(529.3203125,297.796875)"/>
<path d="M0 0 C4.345889 0.21052749 8.06227407 2.30162954 11.875 4.25 C12.55844482 4.59643555 13.24188965 4.94287109 13.94604492 5.29980469 C53.71579287 25.73502637 90.90440324 51.40974501 125.36328125 79.83203125 C127.1222351 81.27828219 128.89054984 82.7132222 130.66796875 84.13671875 C137.03619508 89.25519215 143.0513456 94.66318027 149.01953125 100.234375 C151.26598689 102.32910924 153.54473428 104.37329669 155.875 106.375 C169.30564635 118.02806081 182.73729439 130.3702231 194.23828125 143.95703125 C196.09067739 146.1051536 198.00823423 148.18600912 199.93847656 150.26416016 C210.10978122 161.22718092 219.10057723 172.99857877 228 185 C226.10051432 189.32828029 223.20196939 191.20785335 219.3125 193.6875 C218.63751465 194.12610352 217.9625293 194.56470703 217.26708984 195.01660156 C215.18687472 196.35889436 213.0964068 197.68316156 211 199 C210.41557129 199.36754395 209.83114258 199.73508789 209.22900391 200.11376953 C204.87045411 202.83136401 200.44362803 205.42453266 196 208 C195.12649902 208.51046875 194.25299805 209.0209375 193.35302734 209.546875 C105.14143831 260.88742928 4.31139233 276.58390634 -95 252 C-106.75504097 248.79839806 -118.33959732 245.0920734 -129.71826172 240.73876953 C-132.0759621 239.84598416 -132.0759621 239.84598416 -135 240 C-135 239.34 -135 238.68 -135 238 C-135.61528564 237.82911865 -136.23057129 237.6582373 -136.86450195 237.48217773 C-142.86811461 235.75680435 -148.51188411 233.66245699 -154.1875 231.0625 C-155.45303711 230.48749756 -155.45303711 230.48749756 -156.74414062 229.90087891 C-170.80794731 223.41601552 -184.6539573 216.25476856 -197.890625 208.20703125 C-200.07318272 206.86632655 -200.07318272 206.86632655 -203 206 C-203 205.34 -203 204.68 -203 204 C-203.73589355 203.72671875 -204.47178711 203.4534375 -205.22998047 203.171875 C-207.84193796 202.06686919 -209.97752 200.83493987 -212.3203125 199.25 C-213.10277344 198.7240625 -213.88523437 198.198125 -214.69140625 197.65625 C-215.49449219 197.1096875 -216.29757812 196.563125 -217.125 196 C-217.93582031 195.4534375 -218.74664062 194.906875 -219.58203125 194.34375 C-221.08491926 193.33023214 -222.58653206 192.31481883 -224.08642578 191.296875 C-225.7191663 190.19032772 -227.35887945 189.09408036 -229 188 C-225.25309873 179.75305147 -218.18872866 172.99173299 -212.15234375 166.3671875 C-210.24182053 164.2659587 -208.36331552 162.14302801 -206.5 160 C-175.47647289 124.46395985 -175.47647289 124.46395985 -157.875 109.59375 C-155.59616622 107.65674129 -153.39675343 105.64094375 -151.1875 103.625 C-146.89175183 99.74771132 -142.46550528 96.07337804 -137.96484375 92.4375 C-135.86585389 90.71184826 -133.8007522 88.97251898 -131.75390625 87.1875 C-124.72261415 81.05602788 -117.559336 75.27820643 -109.9777832 69.83276367 C-108.28484772 68.60014551 -106.63731282 67.3055975 -105 66 C-105 65.34 -105 64.68 -105 64 C-104.20335937 63.89365234 -104.20335937 63.89365234 -103.390625 63.78515625 C-100.02001256 62.67814138 -97.52550221 60.57746342 -94.75 58.4375 C-71.23393739 40.77742721 -45.97216235 25.3129887 -19.859375 11.8125 C-18.81483154 11.27230225 -17.77028809 10.73210449 -16.6940918 10.17553711 C-14.64137299 9.11821169 -12.58563518 8.06672245 -10.52661133 7.02172852 C-9.59099365 6.54147217 -8.65537598 6.06121582 -7.69140625 5.56640625 C-6.85810791 5.14302979 -6.02480957 4.71965332 -5.16625977 4.28344727 C-2.95882674 3.09868949 -2.95882674 3.09868949 -1.34790039 1.33276367 C-0.90309326 0.89295166 -0.45828613 0.45313965 0 0 Z " fill="#5B9C4E" transform="translate(544,632)"/>
<path d="M0 0 C14.0557924 -0.17150506 27.97764569 0.29182503 42 1.25 C42.99312195 1.31657806 43.9862439 1.38315613 45.00946045 1.45175171 C76.32437629 3.57039085 107.11942987 7.41481816 138 13 C139.35252978 13.24223933 140.70506865 13.48442794 142.05761719 13.7265625 C158.66408852 16.72718576 175.05432758 20.30447339 191.4050293 24.46044922 C192.07719986 24.62935669 192.74937042 24.79826416 193.44190979 24.97229004 C195.26085542 25.43023322 197.07800778 25.89528268 198.89501953 26.36083984 C201.91672204 27.09719458 201.91672204 27.09719458 204.72607422 26.97119141 C207 27 207 27 210 29 C211.62804335 29.55841869 213.27625574 30.05912373 214.93359375 30.5234375 C215.95654541 30.81589355 216.97949707 31.10834961 218.03344727 31.40966797 C219.15678467 31.72822754 220.28012207 32.04678711 221.4375 32.375 C246.93840886 39.78427123 272.08828193 48.25332531 296.73046875 58.15893555 C298.80981825 58.92952064 300.84750193 59.48126027 303 60 C304.57612253 60.67748073 306.13733235 61.39006965 307.6875 62.125 C315.35037561 65.67532688 323.17896173 68.8184053 331 72 C331 72.99 331 73.98 331 75 C330.40799805 75.32572998 329.81599609 75.65145996 329.20605469 75.98706055 C315.08592802 83.7857779 301.37706635 91.98608343 288 101 C287.2982666 101.47147461 286.5965332 101.94294922 285.87353516 102.42871094 C281.21374046 105.56941925 276.59553616 108.76610418 272 112 C271.28102539 112.50499023 270.56205078 113.00998047 269.82128906 113.53027344 C259.44963496 120.84217709 249.46954208 128.51032002 239.69677734 136.60302734 C237.4252168 138.47322439 235.12054654 140.30011941 232.8125 142.125 C224.141056 149.04758134 215.70967946 156.25759935 207.51171875 163.734375 C205.4068526 165.6330101 203.28223993 167.50197825 201.14453125 169.36328125 C187.88205492 180.954664 175.45946877 193.43631763 163 205.875 C162.2682959 206.60411591 161.5365918 207.33323181 160.78271484 208.08444214 C158.68553416 210.17577315 156.59210464 212.27077988 154.5 214.3671875 C153.85909424 215.00611435 153.21818848 215.6450412 152.55786133 216.30332947 C151.97157959 216.89271805 151.38529785 217.48210663 150.78125 218.08935547 C150.26626953 218.60513153 149.75128906 219.12090759 149.22070312 219.65231323 C147.88534267 221.00515183 147.88534267 221.00515183 147 223 C146.34 223 145.68 223 145 223 C144.78730469 223.54140625 144.57460938 224.0828125 144.35546875 224.640625 C142.50978525 227.85328447 139.96023614 230.20532793 137.3125 232.75 C131.43775459 238.50614355 125.89611672 244.37498746 121 251 C117.55166303 250.42347455 116.00099954 249.33773358 113.64453125 246.7890625 C113.02690918 246.12712891 112.40928711 245.46519531 111.77294922 244.78320312 C111.12600098 244.07099609 110.47905273 243.35878906 109.8125 242.625 C109.13977051 241.89474609 108.46704102 241.16449219 107.77392578 240.41210938 C102.62216946 234.7802833 97.75083219 228.97293723 93 223 C91.99836105 221.78718641 90.99427869 220.57638828 89.98828125 219.3671875 C82.15194366 209.9142751 74.89565546 200.15840877 68 190 C67.3827002 189.09161377 66.76540039 188.18322754 66.12939453 187.24731445 C61.37178997 180.18349881 56.86611553 172.99898828 52.5 165.6875 C51.52824829 164.0631604 51.52824829 164.0631604 50.53686523 162.40600586 C37 139.64879555 37 139.64879555 37 136 C36.34 135.67 35.68 135.34 35 135 C33.83779843 132.4509445 32.77201026 129.91749059 31.75 127.3125 C31.18367677 125.89137433 30.61591216 124.4708224 30.046875 123.05078125 C29.73322998 122.26396973 29.41958496 121.4771582 29.09643555 120.66650391 C27.82728296 117.57995647 26.47450108 114.53444669 25.12890625 111.48046875 C21.98425463 104.17036019 19.38494298 96.73168955 16.90258789 89.17431641 C16.17813542 86.97152579 15.44222856 84.77278877 14.70507812 82.57421875 C14.23370358 81.15386848 13.762976 79.7333033 13.29296875 78.3125 C13.07634079 77.66555176 12.85971283 77.01860352 12.63652039 76.35205078 C11.68151449 73.42670306 10.94693929 70.65249356 10.48168945 67.60546875 C10.32273193 66.74566406 10.16377441 65.88585937 10 65 C9.34 64.67 8.68 64.34 8 64 C8.33 62.35 8.66 60.7 9 59 C8.34 58.67 7.68 58.34 7 58 C6.5078125 55.9375 6.5078125 55.9375 6.125 53 C5.96386719 51.83984375 5.80273438 50.6796875 5.63671875 49.484375 C5.54181152 48.79794922 5.4469043 48.11152344 5.34912109 47.40429688 C4.45753904 41.2642269 3.41213863 35.14604069 2.40869141 29.0234375 C0.82749216 19.24043427 -0.12548934 9.91365817 0 0 Z " fill="#FEB334" transform="translate(153,533)"/>
<path d="M0 0 C0.15446662 8.13524222 -0.22363529 16.04746274 -1.1875 24.125 C-1.31914551 25.23883057 -1.45079102 26.35266113 -1.58642578 27.50024414 C-6.90588955 70.24486423 -20.11736962 110.84227105 -40 149 C-40.50273438 149.99773437 -41.00546875 150.99546875 -41.5234375 152.0234375 C-50.31915362 169.03444178 -60.89149855 185.23460997 -72.68603516 200.30517578 C-74.69455709 202.89587799 -76.62166415 205.54590218 -78.5625 208.1875 C-83.00549814 214.11149751 -87.7590472 219.73329349 -92.58398438 225.34570312 C-94.00797317 227.00931486 -95.41992246 228.68238692 -96.828125 230.359375 C-102.42738811 237.02558125 -108.12490021 243.57365628 -114 250 C-118.95505623 246.31547101 -122.50903756 242.0149682 -126.34375 237.1953125 C-129.93354357 232.78076106 -133.89147507 228.69408551 -137.83422852 224.59594727 C-142 220.21043459 -142 220.21043459 -142 218 C-142.66 218 -143.32 218 -144 218 C-145.44476318 216.53646851 -145.44476318 216.53646851 -147.12402344 214.50927734 C-150.89377704 210.07887412 -154.89790349 205.95734531 -159.015625 201.8515625 C-159.75327087 201.1129599 -160.49091675 200.3743573 -161.25091553 199.6133728 C-162.79593226 198.06768068 -164.342192 196.5232301 -165.88964844 194.97998047 C-168.26093337 192.61409151 -170.62678255 190.24285994 -172.9921875 187.87109375 C-174.49967914 186.36426226 -176.00748059 184.85774065 -177.515625 183.3515625 C-178.57502289 182.28912827 -178.57502289 182.28912827 -179.65582275 181.20523071 C-180.31370789 180.55049774 -180.97159302 179.89576477 -181.64941406 179.22119141 C-182.22564514 178.64575592 -182.80187622 178.07032043 -183.39556885 177.47744751 C-185.13959177 175.7945748 -185.13959177 175.7945748 -188 174 C-188 173.34 -188 172.68 -188 172 C-188.59224365 171.7306665 -189.1844873 171.46133301 -189.79467773 171.18383789 C-191.99725642 170.00147278 -193.49350061 168.78794028 -195.28515625 167.05859375 C-195.89262695 166.47940186 -196.50009766 165.90020996 -197.12597656 165.3034668 C-197.7650293 164.68769775 -198.40408203 164.07192871 -199.0625 163.4375 C-204.33921254 158.43202632 -209.66782025 153.64585026 -215.35546875 149.109375 C-219.22190202 146.02536619 -222.99700135 142.83178509 -226.78515625 139.65234375 C-228.80662634 137.80067919 -228.80662634 137.80067919 -231 138 C-231.53496094 137.29746094 -232.06992187 136.59492187 -232.62109375 135.87109375 C-235.66966684 132.1917814 -239.16255001 129.78129359 -243.0625 127.0625 C-244.68045882 125.91645274 -246.29761962 124.76927818 -247.9140625 123.62109375 C-248.74969727 123.02925293 -249.58533203 122.43741211 -250.44628906 121.82763672 C-253.82688264 119.40821764 -257.16033077 116.92820019 -260.49389648 114.44458008 C-267.82913804 108.98254038 -275.19946508 103.78130542 -283 99 C-284.37260323 98.12736982 -285.74354583 97.25212482 -287.11328125 96.375 C-299.23910967 88.62383398 -311.57195069 81.25514091 -324 74 C-321.30104732 71.86417395 -318.68148082 70.24872296 -315.55859375 68.80859375 C-314.72779297 68.42123047 -313.89699219 68.03386719 -313.04101562 67.63476562 C-311.75227539 67.04211914 -311.75227539 67.04211914 -310.4375 66.4375 C-308.72686169 65.64669708 -307.01718409 64.85381179 -305.30859375 64.05859375 C-304.55376709 63.71111084 -303.79894043 63.36362793 -303.02124023 63.00561523 C-300.77505455 61.94103785 -300.77505455 61.94103785 -298 60 C-295.52613135 59.17537712 -293.05528689 58.43682874 -290.55078125 57.71484375 C-284.64924145 55.94938943 -278.93907336 53.75971554 -273.1875 51.5625 C-261.86394923 47.30547191 -250.44375462 43.41938101 -238.9375 39.6875 C-238.17633881 39.43928497 -237.41517761 39.19106995 -236.63095093 38.93533325 C-227.34394978 35.91286819 -218.03929807 33.08596504 -208.57518005 30.66398621 C-206.70041388 30.16747068 -204.84718607 29.5909141 -203 29 C-202.67 28.34 -202.34 27.68 -202 27 C-199.76476264 26.79217378 -197.5289171 26.59014727 -195.29150391 26.40722656 C-191.38995024 25.92452433 -187.61198128 25.0889373 -183.79296875 24.1796875 C-183.03732132 23.999823 -182.28167389 23.8199585 -181.50312805 23.63464355 C-179.90020447 23.25059891 -178.29763905 22.86505679 -176.69540405 22.47814941 C-150.40173587 16.15453805 -123.93392598 11.05055091 -97.1875 7.0625 C-96.4704892 6.95450073 -95.75347839 6.84650146 -95.01473999 6.73522949 C-87.99368196 5.68720408 -81.11557105 4.69934207 -74 5 C-74 4.34 -74 3.68 -74 3 C-72.7109375 2.95101562 -71.421875 2.90203125 -70.09375 2.8515625 C-61.06120166 2.49062734 -52.0358936 2.08867115 -43.015625 1.48828125 C-42.33737671 1.44317413 -41.65912842 1.39806702 -40.96032715 1.35159302 C-39.58113206 1.2596426 -38.20194099 1.16763193 -36.82275391 1.07556152 C-24.5346195 0.25707625 -12.31840673 -0.28573624 0 0 Z " fill="#86C358" transform="translate(930,533)"/>
<path d="M0 0 C3.7530609 1.64751854 6.23860456 3.80825062 8.4375 7.25 C9.42380522 12.07193664 10.13398296 16.44373333 8.078125 21.078125 C4.54258639 26.36063563 -0.24891603 29.40583375 -5.55078125 32.7578125 C-9.36787219 35.18957122 -12.95952379 37.8894647 -16.5625 40.625 C-17.92957245 41.65900629 -19.296763 42.69285646 -20.6640625 43.7265625 C-21.36821289 44.25926758 -22.07236328 44.79197266 -22.79785156 45.34082031 C-34.6558245 54.27505358 -46.68112247 62.96690264 -58.84130859 71.48388672 C-61.15534005 73.10909994 -63.4630356 74.74301755 -65.76953125 76.37890625 C-66.55054199 76.93239746 -67.33155273 77.48588867 -68.13623047 78.05615234 C-69.63978295 79.12200612 -71.14273908 80.18870176 -72.64501953 81.25634766 C-73.65411377 81.97056885 -73.65411377 81.97056885 -74.68359375 82.69921875 C-75.27712646 83.12033936 -75.87065918 83.54145996 -76.48217773 83.9753418 C-80.46630757 86.66496588 -84.32150368 86.55131217 -89 86 C-92.74336125 84.68302396 -95.3952666 82.76599564 -97.875 79.625 C-99.78835302 75.16050962 -100.46583172 71.75234406 -99.0625 67.0625 C-95.73682298 59.3869722 -87.3170898 54.6210612 -80.6875 49.9375 C-79.09703866 48.80164553 -77.5072158 47.66489659 -75.91796875 46.52734375 C-75.10634277 45.94710449 -74.2947168 45.36686523 -73.45849609 44.76904297 C-69.4459362 41.8817531 -65.47359295 38.94056528 -61.5 36 C-53.71513462 30.24680437 -45.88444991 24.56029035 -38.02734375 18.90625 C-34.68841884 16.50228634 -31.37357484 14.06721123 -28.0625 11.625 C-10.24829489 -1.36337555 -10.24829489 -1.36337555 0 0 Z " fill="#FEC332" transform="translate(853,259)"/>
<path d="M0 0 C13.04052543 0.42202348 13.04052543 0.42202348 18 5 C21.38494992 8.83627658 21.52293892 12.63748427 21.33984375 17.56640625 C20.81436671 21.32930504 19.61051779 23.25895632 17 26 C11.61410473 29.43148973 6.15375201 30.85499371 -0.0871582 31.83105469 C-1.39376907 32.05138618 -1.39376907 32.05138618 -2.72677612 32.27616882 C-5.58281516 32.75426902 -8.44151051 33.21353227 -11.30078125 33.671875 C-13.30338405 34.00157536 -15.30583864 34.33217706 -17.30815125 34.66363525 C-21.49702409 35.35414424 -25.68722834 36.03566366 -29.87866211 36.71044922 C-35.22707149 37.57195229 -40.57207804 38.45274339 -45.91627216 39.33997726 C-50.04950998 40.02447362 -54.18415649 40.70011955 -58.31929588 41.37302399 C-60.28947497 41.69440695 -62.25927379 42.01813085 -64.22866249 42.3443222 C-88.74994105 46.39092839 -88.74994105 46.39092839 -96.4375 43.875 C-100.43029015 40.95344623 -102.41207365 37.80297413 -103.9375 33.125 C-104.02074933 28.96253371 -103.23026335 25.53977578 -101 22 C-96.91982997 18.01376194 -94.24011225 16.37911629 -88.5 15.5 C-87.85144043 15.39381348 -87.20288086 15.28762695 -86.53466797 15.17822266 C-84.98631705 14.92618152 -83.4365086 14.68301427 -81.88574219 14.44628906 C-76.312838 13.58442198 -70.75267346 12.64286706 -65.19018555 11.71655273 C-63.13860243 11.37724965 -61.08606437 11.04436407 -59.03320312 10.71289062 C-57.76669922 10.50599609 -56.50019531 10.29910156 -55.1953125 10.0859375 C-54.05078613 9.9007959 -52.90625977 9.7156543 -51.72705078 9.52490234 C-49.0480263 9.13655338 -49.0480263 9.13655338 -47 8 C-44.83811483 7.69332809 -42.6698656 7.43138195 -40.5 7.1875 C-31.58611583 6.14900976 -22.73389587 4.74866102 -13.875 3.32104492 C-12.79863281 3.15064697 -11.72226562 2.98024902 -10.61328125 2.8046875 C-9.65204346 2.64983887 -8.69080566 2.49499023 -7.70043945 2.33544922 C-5.10070435 2.01250952 -2.6163765 1.93877388 0 2 C0 1.34 0 0.68 0 0 Z " fill="#FEC432" transform="translate(912,448)"/>
<path d="M0 0 C7.6991516 4.32163086 14.54237245 10.31236352 21.45703125 15.76953125 C24.61506059 18.25792254 27.80404812 20.67921745 31.07421875 23.01953125 C37.31613563 27.49306433 43.38993258 32.18436413 49.48364258 36.85644531 C54.00891403 40.31706531 58.55362002 43.7408386 63.16796875 47.08203125 C64.02519531 47.70384277 64.88242187 48.3256543 65.765625 48.96630859 C67.3831628 50.13484676 69.00530175 51.29705255 70.6328125 52.45166016 C75.54966055 56.0064376 80.41599962 59.53527532 82.609375 65.41796875 C83.20129197 71.20799296 82.41536169 75.49348578 78.76171875 80.14453125 C75.41700091 83.14295254 72.35831709 84.04672824 67.94921875 84.76953125 C58.81126873 84.20935041 51.06641896 76.18157441 44.16796875 70.7734375 C40.85299736 68.18931846 37.4484447 65.75066754 34.01171875 63.33203125 C26.41739107 57.97063705 19.06899368 52.30109748 11.70263672 46.6328125 C9.04844224 44.59759621 6.37625279 42.58708252 3.69921875 40.58203125 C2.76980469 39.88078125 1.84039062 39.17953125 0.8828125 38.45703125 C-1.52291877 36.67456202 -3.9449979 34.93322575 -6.390625 33.20703125 C-7.11048584 32.68955322 -7.83034668 32.1720752 -8.57202148 31.63891602 C-9.97455356 30.63092018 -11.38637687 29.63567746 -12.80883789 28.65600586 C-17.48738449 25.26375373 -20.48175007 21.73049683 -22.23828125 16.14453125 C-22.55104189 10.46525572 -20.92072646 6.54300748 -17.23828125 2.14453125 C-12.41132337 -2.11454923 -5.85770155 -2.2388074 0 0 Z " fill="#FEC332" transform="translate(247.23828125,261.85546875)"/>
<path d="M0 0 C7.46361031 7.01130826 10.70480595 22.03414089 14.0625 31.375 C15.01686483 34.00748279 15.97492459 36.6386133 16.93359375 39.26953125 C17.17554474 39.93423431 17.41749573 40.59893738 17.66677856 41.28378296 C20.26162561 48.39868614 22.93522904 55.48302657 25.625 62.5625 C26.08140869 63.76390625 26.53781738 64.9653125 27.00805664 66.203125 C29.91379341 73.8320701 32.84717154 81.45006822 35.85839844 89.03808594 C38.60656764 96.01420777 40.2772863 102.26145068 37.75 109.5625 C35.39511124 113.01633685 33.67353672 114.5168281 29.875 116.3125 C24.87997676 117.10845492 21.07844919 116.8919385 16.5 114.6875 C10.13740038 108.93086225 8.03529295 101.79757553 5.25 93.875 C4.2928516 91.19559799 3.32722707 88.51930242 2.359375 85.84375 C2.09593292 85.11450821 1.83249084 84.38526642 1.56106567 83.63392639 C-2.67750556 71.96465661 -7.19978921 60.3993942 -11.6819458 48.822052 C-25.4660745 13.21250906 -25.4660745 13.21250906 -23.125 6.3125 C-20.74393329 2.45670811 -18.27674471 -0.08658972 -14.25 -2.1875 C-8.79033491 -3.06104641 -4.89791267 -2.64487284 0 0 Z " fill="#FEC331" transform="translate(426.125,140.6875)"/>
<path d="M0 0 C4.42400903 2.21200452 6.99652723 4.46582478 9 9 C10.17076584 14.36742407 9.81804798 17.67918341 7.8671875 22.7890625 C7.51661789 23.72677994 7.51661789 23.72677994 7.15896606 24.68344116 C6.41233979 26.66990045 5.64422595 28.64719801 4.875 30.625 C4.38136773 31.92783892 3.88916898 33.23122194 3.3984375 34.53515625 C1.95205672 38.36448993 0.47821706 42.18286647 -1 46 C-1.93598899 48.42405974 -2.87044225 50.8487045 -3.8046875 53.2734375 C-4.20413574 54.30645996 -4.60358398 55.33948242 -5.01513672 56.40380859 C-5.71715071 58.25438291 -6.37410473 60.12231418 -7 62 C-7.51107054 63.24159162 -8.03448542 64.47813456 -8.56640625 65.7109375 C-13.00775764 76.08576265 -17.1742069 86.53232447 -21.140625 97.09765625 C-21.75907726 98.73227822 -22.37889708 100.36638335 -23 102 C-23.34160156 102.90347168 -23.68320312 103.80694336 -24.03515625 104.73779297 C-24.37933594 105.62740723 -24.72351563 106.51702148 -25.078125 107.43359375 C-25.3865332 108.23724365 -25.69494141 109.04089355 -26.01269531 109.86889648 C-28.08952167 114.35173954 -31.49303884 117.18412817 -36 119 C-40.72622538 119.23054758 -44.82358851 118.67581086 -48.9375 116.3125 C-51.73302942 113.17811852 -53.96449383 110.4743363 -54.02734375 106.09448242 C-53.37159148 99.6420291 -51.45337203 94.02875249 -49.125 88 C-48.70734375 86.89293701 -48.2896875 85.78587402 -47.859375 84.64526367 C-44.68604675 76.28076049 -41.42628982 67.94954643 -38.1796875 59.61328125 C-37.75591827 58.52409393 -37.33214905 57.43490662 -36.89553833 56.31271362 C-34.7471072 50.79188836 -32.5927486 45.27353517 -30.42626953 39.75976562 C-29.61739316 37.69015101 -28.80863182 35.62049143 -28 33.55078125 C-27.6264035 32.60584305 -27.25280701 31.66090485 -26.8678894 30.68733215 C-24.84633204 25.49729649 -23.27098181 20.42114986 -22 15 C-17.24548304 5.49096608 -11.52295319 -2.04439492 0 0 Z " fill="#FEC432" transform="translate(670,138)"/>
<path d="M0 0 C0 0.33 0 0.66 0 1 C0.91153336 1.12892639 1.82306671 1.25785278 2.76222229 1.39068604 C11.37113218 2.61097896 19.97788054 3.84535646 28.58252048 5.09541702 C33.00585554 5.73752517 37.42982477 6.37424682 41.85571289 6.99853516 C46.130525 7.60171827 50.40305031 8.21921067 54.67439079 8.84648895 C56.30065142 9.08278128 57.92765897 9.31399303 59.55539131 9.53992462 C61.84325701 9.85838764 64.12774862 10.1951634 66.41235352 10.53613281 C68.36094017 10.81592987 68.36094017 10.81592987 70.34889221 11.10137939 C75.38307403 12.34040595 79.53542244 14.19368768 82.875 18.3125 C84.91845113 23.19407771 85.45211422 26.59606637 83.8125 31.6875 C81.30154726 36.2764826 78.79340557 38.93651399 74 41 C66.17398873 41.48436851 58.58856003 40.27678951 50.8515625 39.171875 C49.47186189 38.97917126 48.09208921 38.7869829 46.71224976 38.59527588 C43.08213726 38.08938641 39.45312601 37.57597905 35.82427979 37.06109619 C32.22990542 36.55265875 28.63441608 36.0522379 25.0390625 35.55078125 C18.72492056 34.6687228 12.41256605 33.77466244 6.1014595 32.87114716 C2.72153202 32.38740988 -0.65874461 31.90657721 -4.04016113 31.43334961 C-7.81156874 30.90467272 -11.58166182 30.36742752 -15.3515625 29.828125 C-17.03842667 29.59461334 -17.03842667 29.59461334 -18.7593689 29.35638428 C-19.79091095 29.20687317 -20.822453 29.05736206 -21.88525391 28.90332031 C-22.7814444 28.77644836 -23.67763489 28.64957642 -24.60098267 28.51885986 C-27.00966433 27.9979098 -28.85916019 27.2021301 -31 26 C-31 25.34 -31 24.68 -31 24 C-31.99 23.67 -32.98 23.34 -34 23 C-36.78814422 17.61599737 -37.49841001 13.98175615 -35.875 8.1171875 C-30.04384046 -5.99213602 -12.38641259 -1.05416277 0 0 Z " fill="#FEC232" transform="translate(191,448)"/>
<path d="M0 0 C12.71159085 -0.11941996 25.31601228 0.14214576 38 1 C38 1.33 38 1.66 38 2 C26.12 2.33 14.24 2.66 2 3 C2.33 5.31 2.66 7.62 3 10 C2.87890625 12.87109375 2.87890625 12.87109375 2.5625 15.4375 C2.40974609 16.73494141 2.40974609 16.73494141 2.25390625 18.05859375 C2.17011719 18.69925781 2.08632812 19.33992187 2 20 C1.67 20 1.34 20 1 20 C0.11978631 13.28837062 -0.11381955 6.76594019 0 0 Z " fill="#FDBD4C" transform="translate(153,533)"/>
<path d="M0 0 C3.34584964 1.45042909 5.50054036 3.27738825 8.0390625 5.87890625 C8.78414062 6.63494141 9.52921875 7.39097656 10.296875 8.16992188 C11.06515625 8.95947266 11.8334375 9.74902344 12.625 10.5625 C14.15663169 12.12847891 15.69038195 13.69238939 17.2265625 15.25390625 C17.90283691 15.94814697 18.57911133 16.6423877 19.27587891 17.35766602 C20.91488551 19.07956495 20.91488551 19.07956495 23 20 C23 20.66 23 21.32 23 22 C19.04411418 21.45007108 17.22353001 19.59746667 14.453125 16.81640625 C13.60878906 15.97142578 12.76445313 15.12644531 11.89453125 14.25585938 C11.02183594 13.36705078 10.14914062 12.47824219 9.25 11.5625 C8.36183594 10.67755859 7.47367188 9.79261719 6.55859375 8.88085938 C0 2.26685508 0 2.26685508 0 0 Z " fill="#81BD50" transform="translate(746,708)"/>
<path d="M0 0 C4.16242076 1.40997316 6.97662407 3.41136752 10.3125 6.25 C14.77194499 9.99037459 19.30112213 13.56672247 24 17 C23.01 17.33 22.02 17.66 21 18 C19.27001953 17.09130859 19.27001953 17.09130859 17.3828125 15.6484375 C16.69316406 15.12636719 16.00351562 14.60429688 15.29296875 14.06640625 C14.57753906 13.50824219 13.86210938 12.95007813 13.125 12.375 C12.41730469 11.84003906 11.70960938 11.30507813 10.98046875 10.75390625 C7.03579048 7.73479494 3.36693781 4.65741872 0 1 C0 0.67 0 0.34 0 0 Z " fill="#80BE4C" transform="translate(675,649)"/>
<path d="M0 0 C2 0 2 0 3.375 1.328125 C3.91125 1.96234375 4.4475 2.5965625 5 3.25 C5.60972656 3.96671875 6.21945312 4.6834375 6.84765625 5.421875 C7.55792969 6.27265625 8.26820313 7.1234375 9 8 C9.64557861 8.77053711 9.64557861 8.77053711 10.30419922 9.55664062 C13.21333905 13.02907231 16.11027555 16.51139905 19 20 C16 20 16 20 14.29833984 18.59472656 C13.69199707 17.94987305 13.0856543 17.30501953 12.4609375 16.640625 C11.79835938 15.93679688 11.13578125 15.23296875 10.453125 14.5078125 C9.76734375 13.76273438 9.0815625 13.01765625 8.375 12.25 C7.68148437 11.52039063 6.98796875 10.79078125 6.2734375 10.0390625 C0.67722013 4.02750087 0.67722013 4.02750087 0 0 Z " fill="#7BB94A" transform="translate(787,749)"/>
<path d="M0 0 C0.99 0.33 1.98 0.66 3 1 C2.34773438 1.64066406 1.69546875 2.28132812 1.0234375 2.94140625 C-3.883259 7.79744364 -8.60304566 12.67737106 -13 18 C-13.33 17.01 -13.66 16.02 -14 15 C-12.0421736 12.87453098 -10.08376183 10.74960666 -8.125 8.625 C-7.29162109 7.72007812 -7.29162109 7.72007812 -6.44140625 6.796875 C-5.90644531 6.21679688 -5.37148438 5.63671875 -4.8203125 5.0390625 C-4.08192139 4.23782959 -4.08192139 4.23782959 -3.32861328 3.42041016 C-2.24184238 2.25855182 -1.12494128 1.12494128 0 0 Z " fill="#569644" transform="translate(353,775)"/>
<path d="M0 0 C4.05611794 1.42332866 7.17537252 3.38591603 10.625 5.9375 C11.56601562 6.62714844 12.50703125 7.31679688 13.4765625 8.02734375 C15.48391823 9.59656146 17.26560565 11.14338323 19 13 C13.06162834 12.65068402 10.98062559 11.2948855 7 7 C6.113125 6.67 5.22625 6.34 4.3125 6 C2 5 2 5 0.6875 2.375 C0.460625 1.59125 0.23375 0.8075 0 0 Z " fill="#64A24B" transform="translate(607,667)"/>
<path d="M0 0 C0.33 0 0.66 0 1 0 C1.33 5.61 1.66 11.22 2 17 C-1.76687864 18.88343932 -3.02958963 19.22057835 -7 19 C-6.34 18.67 -5.68 18.34 -5 18 C-5 17.34 -5 16.68 -5 16 C-3.68 16 -2.36 16 -1 16 C-0.67 10.72 -0.34 5.44 0 0 Z " fill="#FCCE42" transform="translate(749,488)"/>
<path d="M0 0 C1.32 0.33 2.64 0.66 4 1 C-0.29 4.63 -4.58 8.26 -9 12 C-9.66 11.67 -10.32 11.34 -11 11 C-4.15189487 2.62224939 -4.15189487 2.62224939 0 0 Z " fill="#559341" transform="translate(423,710)"/>
<path d="M0 0 C3 2 3 2 3.66015625 4.12890625 C3.79292969 4.93199219 3.92570313 5.73507813 4.0625 6.5625 C4.42427653 8.94433029 4.42427653 8.94433029 5 11 C5.66 11.33 6.32 11.66 7 12 C8.35308313 13.31328657 9.68870078 14.64499081 11 16 C7.32110087 15.78977719 6.02225885 15.02023532 3.25 12.5 C0.29904613 8.70723797 0.11427403 4.67484668 0 0 Z " fill="#FCC740" transform="translate(616,240)"/>
<path d="M0 0 C5.54110713 3.40991208 10.20968493 7.61420043 15 12 C14.67 12.66 14.34 13.32 14 14 C12.22750476 12.5645497 10.45706424 11.12656197 8.6875 9.6875 C7.70136719 8.88699219 6.71523438 8.08648438 5.69921875 7.26171875 C1.49199806 3.73642095 1.49199806 3.73642095 0 2 C0 1.34 0 0.68 0 0 Z " fill="#7EBC4B" transform="translate(709,675)"/>
<path d="M0 0 C0.33 0 0.66 0 1 0 C0.57815943 6.64398897 -0.57415719 12.2083865 -4 18 C-4.66 18.33 -5.32 18.66 -6 19 C-4.3186083 12.51292846 -2.46937673 6.2322365 0 0 Z " fill="#7FBD4D" transform="translate(913,620)"/>
<path d="M0 0 C6.35987804 -0.20190089 11.85221129 0.3722167 18 2 C18 2.33 18 2.66 18 3 C13.38 3 8.76 3 4 3 C4 2.34 4 1.68 4 1 C2.68 0.67 1.36 0.34 0 0 Z " fill="#FEB925" transform="translate(209,480)"/>
<path d="M0 0 C5.03681497 3.07122864 8.94510767 6.72916666 13 11 C12.01 11.495 12.01 11.495 11 12 C9.72799029 10.89718873 8.45744147 9.79269231 7.1875 8.6875 C6.47980469 8.07261719 5.77210938 7.45773437 5.04296875 6.82421875 C1.3771204 3.55088953 1.3771204 3.55088953 0 2 C0 1.34 0 0.68 0 0 Z " fill="#7DBB49" transform="translate(731,694)"/>
<path d="M0 0 C0.33 0 0.66 0 1 0 C1.38095238 10.70899471 1.38095238 10.70899471 -1 16 C-1.66 16.66 -2.32 17.32 -3 18 C-2.51679152 11.7945858 -1.66681876 6.00054754 0 0 Z " fill="#7ABB44" transform="translate(923,578)"/>
<path d="M0 0 C-2.60183588 0.69761537 -5.20583602 1.38337774 -7.8125 2.0625 C-8.55048828 2.26166016 -9.28847656 2.46082031 -10.04882812 2.66601562 C-15.66015625 4.11328125 -15.66015625 4.11328125 -19 3 C-18.34 3 -17.68 3 -17 3 C-17 2.34 -17 1.68 -17 1 C-14.91835982 0.63601378 -12.83459438 0.28416713 -10.75 -0.0625 C-9.00976562 -0.35833984 -9.00976562 -0.35833984 -7.234375 -0.66015625 C-4.37477376 -0.9606216 -2.66674071 -0.9439206 0 0 Z " fill="#FDCE44" transform="translate(716,514)"/>
<path d="M0 0 C0.66 0.33 1.32 0.66 2 1 C2 1.99 2 2.98 2 4 C-2.27869296 7.72660355 -6.65042945 7.31468062 -12 7 C-8.61976875 4.0253965 -5.27845146 3.21088249 -1 2 C-0.67 1.34 -0.34 0.68 0 0 Z " fill="#FDC841" transform="translate(776,338)"/>
<path d="M0 0 C1.93784265 0.14120714 3.87526955 0.28812873 5.8125 0.4375 C7.43091797 0.55931641 7.43091797 0.55931641 9.08203125 0.68359375 C12 1 12 1 15 2 C15 2.66 15 3.32 15 4 C15.66 4.33 16.32 4.66 17 5 C11.0870696 4.35729017 5.65755469 2.80996216 0 1 C0 0.67 0 0.34 0 0 Z " fill="#FEAA26" transform="translate(355,562)"/>
<path d="M0 0 C7.63076923 1.47692308 7.63076923 1.47692308 9.5 4.125 C9.665 4.74375 9.83 5.3625 10 6 C6.44219804 5.39009109 3.3171411 4.4216319 0 3 C0 2.01 0 1.02 0 0 Z " fill="#579447" transform="translate(341,835)"/>
<path d="M0 0 C0.33 0.99 0.66 1.98 1 3 C-0.328125 5.26171875 -0.328125 5.26171875 -2.25 7.6875 C-2.87390625 8.49574219 -3.4978125 9.30398438 -4.140625 10.13671875 C-5.06101562 11.05904297 -5.06101562 11.05904297 -6 12 C-6.99 12 -7.98 12 -9 12 C-6.03 8.04 -3.06 4.08 0 0 Z " fill="#79B749" transform="translate(858,728)"/>
<path d="M0 0 C1.06528748 2.73019786 1.07998186 3.79298812 0.00390625 6.578125 C-0.47175781 7.45984375 -0.94742188 8.3415625 -1.4375 9.25 C-1.91058594 10.14203125 -2.38367188 11.0340625 -2.87109375 11.953125 C-3.24363281 12.62859375 -3.61617187 13.3040625 -4 14 C-4.66 14 -5.32 14 -6 14 C-4.50829734 9.0276578 -2.39542583 4.58154261 0 0 Z " fill="#7DBB4C" transform="translate(894,668)"/>
<path d="M0 0 C5.11918146 -0.1765235 9.24983365 -0.2012966 14 2 C14.33 2.99 14.66 3.98 15 5 C13.06077578 4.54901762 11.12366406 4.08894441 9.1875 3.625 C8.10855469 3.36976563 7.02960938 3.11453125 5.91796875 2.8515625 C3 2 3 2 0 0 Z " fill="#FDCB3E" transform="translate(445,532)"/>
<path d="M0 0 C5.4389165 -0.21755666 9.87080814 -0.10428384 15 2 C15 2.66 15 3.32 15 4 C15.66 4.33 16.32 4.66 17 5 C11.24237834 3.91103333 5.60752181 2.70663707 0 1 C0 0.67 0 0.34 0 0 Z " fill="#FDCB42" transform="translate(404,520)"/>
<path d="M0 0 C0 0.33 0 0.66 0 1 C-1.87387477 1.3396019 -3.74916697 1.67138691 -5.625 2 C-6.66914062 2.185625 -7.71328125 2.37125 -8.7890625 2.5625 C-11.90574865 2.98715797 -14.85930812 3.07545206 -18 3 C-16.11543017 0.45028788 -14.95658489 -0.01021532 -11.8125 -0.75 C-7.6421286 -1.02346698 -4.11745579 -0.6501246 0 0 Z " fill="#FDCB42" transform="translate(866,486)"/>
<path d="M0 0 C1.32 0.33 2.64 0.66 4 1 C0.7 3.31 -2.6 5.62 -6 8 C-6.66 7.67 -7.32 7.34 -8 7 C-5.42215154 4.35247996 -3.08351902 2.05567935 0 0 Z " fill="#559541" transform="translate(477,671)"/>
<path d="M0 0 C0 0.33 0 0.66 0 1 C-1.65 1 -3.3 1 -5 1 C-5 1.66 -5 2.32 -5 3 C-8.96 3 -12.92 3 -17 3 C-11.11529226 0.05764613 -6.45859385 -0.10946769 0 0 Z " fill="#FDBA21" transform="translate(853,487)"/>
<path d="M0 0 C-4.19937513 2.79958342 -6.09705438 3.11598878 -11.125 3.0625 C-12.22070312 3.05347656 -13.31640625 3.04445313 -14.4453125 3.03515625 C-15.70988281 3.01775391 -15.70988281 3.01775391 -17 3 C-17 2.67 -17 2.34 -17 2 C-11.23918159 0.7017874 -5.91260345 -0.25706972 0 0 Z " fill="#FEBA21" transform="translate(895,480)"/>
<path d="M0 0 C1.23593891 3.70781672 0.5678132 4.67510253 -0.9375 8.1875 C-1.31777344 9.08855469 -1.69804688 9.98960937 -2.08984375 10.91796875 C-2.54037109 11.94857422 -2.54037109 11.94857422 -3 13 C-3.33 13 -3.66 13 -4 13 C-4.17673419 8.4932782 -4.13551182 5.03374456 -2 1 C-1.34 0.67 -0.68 0.34 0 0 Z " fill="#FDBC29" transform="translate(646,165)"/>
<path d="M0 0 C0.99 0.66 1.98 1.32 3 2 C1.04578965 2.86355778 -0.91351347 3.71559934 -2.875 4.5625 C-3.96554687 5.03816406 -5.05609375 5.51382813 -6.1796875 6.00390625 C-7.11039063 6.33261719 -8.04109375 6.66132812 -9 7 C-9.66 6.67 -10.32 6.34 -11 6 C-10.67 5.34 -10.34 4.68 -10 4 C-7.35139573 3.40644386 -4.70802678 3.25790731 -2 3 C-2 2.34 -2 1.68 -2 1 C-1.34 0.67 -0.68 0.34 0 0 Z " fill="#FCCD3B" transform="translate(595,549)"/>
<path d="M0 0 C4.71403788 0.47939368 8.66579301 0.96834048 13 3 C13 3.33 13 3.66 13 4 C7.80310881 5.14507772 7.80310881 5.14507772 5 5 C2 2.5625 2 2.5625 0 0 Z " fill="#FDC127" transform="translate(419,523)"/>
<path d="M0 0 C1.79379098 0.44994757 3.58498928 0.91024143 5.375 1.375 C6.37273437 1.63023437 7.37046875 1.88546875 8.3984375 2.1484375 C11 3 11 3 13 5 C11.56208484 4.85831863 10.1246763 4.71148957 8.6875 4.5625 C7.88699219 4.48128906 7.08648437 4.40007813 6.26171875 4.31640625 C4 4 4 4 1 3 C0.67 2.01 0.34 1.02 0 0 Z " fill="#529142" transform="translate(416,871)"/>
<path d="M0 0 C1.32 0.33 2.64 0.66 4 1 C-0.455 4.465 -0.455 4.465 -5 8 C-5.66 7.67 -6.32 7.34 -7 7 C-4.66666667 4.66666667 -2.33333333 2.33333333 0 0 Z " fill="#52923E" transform="translate(448,691)"/>
<path d="M0 0 C-3.0469629 1.69433918 -5.82821466 2.49467112 -9.25 3.125 C-10.58804688 3.37636719 -10.58804688 3.37636719 -11.953125 3.6328125 C-12.62859375 3.75398437 -13.3040625 3.87515625 -14 4 C-13.34 3.67 -12.68 3.34 -12 3 C-12 2.34 -12 1.68 -12 1 C-7.58774263 -0.47075246 -4.51718381 -1.36884358 0 0 Z " fill="#FDCC3D" transform="translate(690,520)"/>
<path d="M0 0 C0 0.66 0 1.32 0 2 C0.66 2.33 1.32 2.66 2 3 C-3.0302076 2.47462276 -8.01885239 1.89405214 -13 1 C-13 0.67 -13 0.34 -13 0 C-8.34462607 -0.83796731 -4.62921525 -1.0161692 0 0 Z " fill="#FECA41" transform="translate(353,506)"/>
<path d="M0 0 C1.32 0.33 2.64 0.66 4 1 C-0.455 4.465 -0.455 4.465 -5 8 C-5.66 7.67 -6.32 7.34 -7 7 C-4.66666667 4.66666667 -2.33333333 2.33333333 0 0 Z " fill="#FDBC29" transform="translate(823,272)"/>
<path d="M0 0 C0.99 0 1.98 0 3 0 C4.9078584 3.1749094 5.1609041 5.10585211 4.625 8.75 C4.51414062 9.54921875 4.40328125 10.3484375 4.2890625 11.171875 C4.19367187 11.77515625 4.09828125 12.3784375 4 13 C3.67 13 3.34 13 3 13 C2.86722656 12.31292969 2.73445312 11.62585938 2.59765625 10.91796875 C2.42105469 10.01691406 2.24445312 9.11585938 2.0625 8.1875 C1.88847656 7.29417969 1.71445312 6.40085938 1.53515625 5.48046875 C1.02258847 2.88602829 1.02258847 2.88602829 0 0 Z " fill="#FDB824" transform="translate(674,143)"/>
<path d="M0 0 C-0.99 0 -1.98 0 -3 0 C-3 0.99 -3 1.98 -3 3 C-5.25 3.6875 -5.25 3.6875 -8 4 C-10.3125 2.5625 -10.3125 2.5625 -12 1 C-3.96428571 -1.27678571 -3.96428571 -1.27678571 0 0 Z " fill="#96C85F" transform="translate(758,556)"/>
<path d="M0 0 C10.55808656 0.96355353 10.55808656 0.96355353 15 2 C15 2.33 15 2.66 15 3 C7.67605634 4.26760563 7.67605634 4.26760563 4 3 C3.2575 2.814375 2.515 2.62875 1.75 2.4375 C1.1725 2.293125 0.595 2.14875 0 2 C0 1.34 0 0.68 0 0 Z " fill="#FECC42" transform="translate(571,300)"/>
<path d="M0 0 C0.66 0.33 1.32 0.66 2 1 C1.01 2.175625 1.01 2.175625 0 3.375 C-2.20201441 5.71512812 -2.20201441 5.71512812 -2 8 C-3.98 8.33 -5.96 8.66 -8 9 C-7.04270084 7.87411986 -6.08412105 6.7493285 -5.125 5.625 C-4.59132813 4.99851562 -4.05765625 4.37203125 -3.5078125 3.7265625 C-2.38567993 2.44163349 -1.20628025 1.20628025 0 0 Z " fill="#68A04F" transform="translate(391,737)"/>
<path d="M0 0 C4.10958767 1.45044271 7.43258745 3.51110752 11 6 C9.375 6.75 9.375 6.75 7 7 C1.288 3.864 1.288 3.864 0 0 Z " fill="#81BE4B" transform="translate(640,625)"/>
<path d="M0 0 C4.70054457 0.21366112 9.41428541 0.96451606 14 2 C14 2.33 14 2.66 14 3 C12.02 3.33 10.04 3.66 8 4 C8 3.34 8 2.68 8 2 C6.329375 2.309375 6.329375 2.309375 4.625 2.625 C3.42875 2.74875 2.2325 2.8725 1 3 C0.34 2.34 -0.32 1.68 -1 1 C-0.67 0.67 -0.34 0.34 0 0 Z " fill="#FEBF47" transform="translate(308,550)"/>
<path d="M0 0 C6.875 2.75 6.875 2.75 8 5 C10.52733235 5.65555119 10.52733235 5.65555119 13 6 C13 6.33 13 6.66 13 7 C9.05272412 7.17942163 6.4019487 7.09350689 3 5 C3 4.34 3 3.68 3 3 C2.01 2.67 1.02 2.34 0 2 C0 1.34 0 0.68 0 0 Z " fill="#FCC648" transform="translate(157,469)"/>
<path d="M0 0 C0.99 0.33 1.98 0.66 3 1 C0.69 3.64 -1.62 6.28 -4 9 C-4.33 8.01 -4.66 7.02 -5 6 C-3.59554165 3.7363436 -1.8032087 1.9791315 0 0 Z " fill="#589544" transform="translate(325,806)"/>
<path d="M0 0 C3.39417765 3.12621626 5.6062718 5.56541027 7 10 C3.64501065 8.61172854 1.84949545 7.14414226 0 4 C0 2.68 0 1.36 0 0 Z " fill="#FDA92E" transform="translate(228,729)"/>
<path d="M0 0 C4.43458973 1.3937282 6.87378374 3.60582235 10 7 C5.61537866 6.49890042 3.1999003 5.01704885 0 2 C0 1.34 0 0.68 0 0 Z " fill="#7DBD47" transform="translate(658,637)"/>
<path d="M0 0 C1.60495567 0.11442461 3.20898119 0.24194694 4.8125 0.375 C5.70582031 0.44460938 6.59914063 0.51421875 7.51953125 0.5859375 C10 1 10 1 13 3 C11.39667209 3.08121924 9.79215974 3.13929134 8.1875 3.1875 C7.29417969 3.22230469 6.40085937 3.25710938 5.48046875 3.29296875 C2.58352485 2.95081002 1.77444972 2.24606427 0 0 Z " fill="#FEBD23" transform="translate(353,507)"/>
<path d="M0 0 C0 0.33 0 0.66 0 1 C-9.41002278 3.29612756 -9.41002278 3.29612756 -14 3 C-9.77560795 -1.85805086 -6.07036342 -1.05063982 0 0 Z " fill="#FDCE43" transform="translate(742,507)"/>
<path d="M0 0 C0.33 0 0.66 0 1 0 C2.23076923 6.4 2.23076923 6.4 1.0625 9.4375 C0.711875 9.953125 0.36125 10.46875 0 11 C0 10.01 0 9.02 0 8 C-0.66 8 -1.32 8 -2 8 C-2 6.35 -2 4.7 -2 3 C-1.34 3 -0.68 3 0 3 C0 2.01 0 1.02 0 0 Z " fill="#FCC440" transform="translate(274,469)"/>
<path d="M0 0 C-0.99 1.485 -0.99 1.485 -2 3 C-9.14893617 3.56737589 -9.14893617 3.56737589 -13 1 C-8.61414671 0.29826347 -4.44209357 -0.10834375 0 0 Z " fill="#FDCA42" transform="translate(907,451)"/>
<path d="M0 0 C4.62 0 9.24 0 14 0 C14 0.33 14 0.66 14 1 C13.33613281 1.04898437 12.67226562 1.09796875 11.98828125 1.1484375 C5.2887764 1.71125812 5.2887764 1.71125812 -1 4 C-0.67 2.68 -0.34 1.36 0 0 Z " fill="#FDB31F" transform="translate(161,448)"/>
<path d="M0 0 C-3.82517513 2.39073445 -7.59665524 2.55966552 -12 3 C-11.34 2.67 -10.68 2.34 -10 2 C-10 1.34 -10 0.68 -10 0 C-6.30458414 -0.95024979 -3.69541586 -0.95024979 0 0 Z " fill="#66A356" transform="translate(633,884)"/>
<path d="M0 0 C2.97 0 5.94 0 9 0 C8 2 8 2 5.625 3.125 C3 4 3 4 0 4 C0 2.68 0 1.36 0 0 Z " fill="#8AC04C" transform="translate(632,592)"/>
<path d="M0 0 C3.3 0 6.6 0 10 0 C10 0.66 10 1.32 10 2 C10.99 2.33 11.98 2.66 13 3 C11.58249437 2.88490339 10.16598831 2.75746342 8.75 2.625 C7.96109375 2.55539062 7.1721875 2.48578125 6.359375 2.4140625 C4 2 4 2 0 0 Z " fill="#FEA722" transform="translate(325,555)"/>
<path d="M0 0 C1.41750563 0.11509661 2.83401169 0.24253658 4.25 0.375 C5.03890625 0.44460938 5.8278125 0.51421875 6.640625 0.5859375 C9 1 9 1 13 3 C9.7 3 6.4 3 3 3 C3 2.34 3 1.68 3 1 C2.01 0.67 1.02 0.34 0 0 Z " fill="#FEBE24" transform="translate(367,510)"/>
<path d="M0 0 C1.9955516 3.99110319 2.19546065 5.69986566 2 10 C1.34 10 0.68 10 0 10 C-0.33 10.99 -0.66 11.98 -1 13 C-0.67 8.71 -0.34 4.42 0 0 Z " fill="#FDCE4D" transform="translate(338,467)"/>
<path d="M0 0 C3.96 0.33 7.92 0.66 12 1 C12 1.33 12 1.66 12 2 C3.585 2.495 3.585 2.495 -5 3 C-5 2.67 -5 2.34 -5 2 C-3.35 2 -1.7 2 0 2 C0 1.34 0 0.68 0 0 Z " fill="#F8D663" transform="translate(912,448)"/>
<path d="M0 0 C0.33 0 0.66 0 1 0 C1 1.65 1 3.3 1 5 C0.34 5 -0.32 5 -1 5 C-1.33 6.98 -1.66 8.96 -2 11 C-2.33 11 -2.66 11 -3 11 C-2.67 8.03 -2.34 5.06 -2 2 C-1.34 2 -0.68 2 0 2 C0 1.34 0 0.68 0 0 Z " fill="#FEBB21" transform="translate(623,224)"/>
<path d="M0 0 C1.39195915 4.17587745 -0.17676781 6.13474776 -2 10 C-2.33 10 -2.66 10 -3 10 C-3.36923077 3.47692308 -3.36923077 3.47692308 -1.5 1.0625 C-1.005 0.711875 -0.51 0.36125 0 0 Z " fill="#FDBC27" transform="translate(629,209)"/>
<path d="M0 0 C0 0.33 0 0.66 0 1 C-4.8333472 1.08333357 -9.23692563 0.95261487 -14 0 C-14 -0.33 -14 -0.66 -14 -1 C-8.65998179 -2.33500455 -5.16044765 -1.512545 0 0 Z " fill="#6CA65A" transform="translate(498,891)"/>
<path d="M0 0 C4.37934119 0.51958285 8.68803391 1.05675742 13 2 C13 2.33 13 2.66 13 3 C11.39667209 3.08121924 9.79215974 3.13929134 8.1875 3.1875 C7.29417969 3.22230469 6.40085937 3.25710938 5.48046875 3.29296875 C2.58352485 2.95081002 1.77444972 2.24606427 0 0 Z " fill="#478938" transform="translate(459,884)"/>
<path d="M0 0 C0.66 0.33 1.32 0.66 2 1 C-0.31 3.64 -2.62 6.28 -5 9 C-5.33 8.01 -5.66 7.02 -6 6 C-4.02 4.02 -2.04 2.04 0 0 Z " fill="#4E8E3A" transform="translate(335,795)"/>
<path d="M0 0 C3.87132028 0.57352893 6.08172796 2.48704352 9 5 C8.67 5.99 8.34 6.98 8 8 C6.66372225 6.85760183 5.33104612 5.71098945 4 4.5625 C3.2575 3.92441406 2.515 3.28632812 1.75 2.62890625 C1.1725 2.09136719 0.595 1.55382812 0 1 C0 0.67 0 0.34 0 0 Z " fill="#57993E" transform="translate(690,732)"/>
<path d="M0 0 C0.8125 1.6875 0.8125 1.6875 1 4 C-1.4375 6.75 -1.4375 6.75 -4 9 C-4 5.00095031 -2.27413033 3.19799578 0 0 Z " fill="#7AB84A" transform="translate(871,709)"/>
<path d="M0 0 C4.31392226 0.4793247 6.16569547 1.7457985 9 5 C8.67 5.66 8.34 6.32 8 7 C6.66382648 6.02471263 5.3311249 5.04466681 4 4.0625 C3.2575 3.51722656 2.515 2.97195313 1.75 2.41015625 C1.1725 1.94480469 0.595 1.47945312 0 1 C0 0.67 0 0.34 0 0 Z " fill="#569840" transform="translate(654,702)"/>
<path d="M0 0 C-0.99 0.66 -1.98 1.32 -3 2 C-2.67 2.66 -2.34 3.32 -2 4 C-3.32 4 -4.64 4 -6 4 C-6 3.34 -6 2.68 -6 2 C-7.98 2 -9.96 2 -12 2 C-12 1.67 -12 1.34 -12 1 C-7.95858806 0.36605303 -4.0934693 -0.12404452 0 0 Z " fill="#9ECD68" transform="translate(832,541)"/>
<path d="M0 0 C2.64 0.33 5.28 0.66 8 1 C8 1.33 8 1.66 8 2 C2.63904667 3.12862175 -2.55306686 3.09688221 -8 3 C-8 2.67 -8 2.34 -8 2 C-5.36 2 -2.72 2 0 2 C0 1.34 0 0.68 0 0 Z " fill="#B4D776" transform="translate(856,536)"/>
<path d="M0 0 C-3.82517513 2.39073445 -7.59665524 2.55966552 -12 3 C-11.01 2.67 -10.02 2.34 -9 2 C-9 1.34 -9 0.68 -9 0 C-5.67465243 -1.10844919 -3.37817425 -0.84454356 0 0 Z " fill="#FDCD3C" transform="translate(728,510)"/>
<path d="M0 0 C3.81684226 1.55500981 6.19195732 4.03595495 9 7 C4.75272765 6.52808085 2.76506398 4.07229331 0 1 C0 0.67 0 0.34 0 0 Z " fill="#FEBB25" transform="translate(279,321)"/>
<path d="M0 0 C3.3 0 6.6 0 10 0 C5.60171741 2.1991413 2.81449408 2.51855059 -2 3 C-1.34 2.67 -0.68 2.34 0 2 C0 1.34 0 0.68 0 0 Z " fill="#FEBE24" transform="translate(492,303)"/>
<path d="M0 0 C0.33 0 0.66 0 1 0 C1.36923077 6.52307692 1.36923077 6.52307692 -0.5 8.9375 C-0.995 9.288125 -1.49 9.63875 -2 10 C-3 8 -3 8 -2.44140625 6.0546875 C-2.15136719 5.33539063 -1.86132812 4.61609375 -1.5625 3.875 C-1.27503906 3.15054688 -0.98757813 2.42609375 -0.69140625 1.6796875 C-0.46324219 1.12539062 -0.23507812 0.57109375 0 0 Z " fill="#FDBD28" transform="translate(647,231)"/>
<path d="M0 0 C0.66 0 1.32 0 2 0 C0.55746343 3.36591866 -1.33264727 5.51047079 -4 8 C-4.66 7.67 -5.32 7.34 -6 7 C-5.04882866 5.8274869 -4.08882991 4.66212985 -3.125 3.5 C-2.59132813 2.8503125 -2.05765625 2.200625 -1.5078125 1.53125 C-0.76144531 0.77328125 -0.76144531 0.77328125 0 0 Z " fill="#73B346" transform="translate(822,772)"/>
<path d="M0 0 C0.33 0.99 0.66 1.98 1 3 C-0.9375 5.6875 -0.9375 5.6875 -3 8 C-3.99 7.67 -4.98 7.34 -6 7 C-4.02 4.69 -2.04 2.38 0 0 Z " fill="#7BB94B" transform="translate(830,763)"/>
<path d="M0 0 C2.31 1.98 4.62 3.96 7 6 C6.34 6.66 5.68 7.32 5 8 C2.5 5.6875 2.5 5.6875 0 3 C0 2.01 0 1.02 0 0 Z " fill="#7CBB4B" transform="translate(779,740)"/>
<path d="M0 0 C-2.95183101 2.95183101 -5.95511947 3.08663988 -10 4 C-9.67 3.01 -9.34 2.02 -9 1 C-5.8035914 -0.06546953 -3.34252724 -0.07427838 0 0 Z " fill="#81BC45" transform="translate(672,581)"/>
<path d="M0 0 C-1.65 0.33 -3.3 0.66 -5 1 C-5 1.66 -5 2.32 -5 3 C-7.31 3 -9.62 3 -12 3 C-7.97869817 0.31913211 -4.73968522 -1.57989507 0 0 Z " fill="#FEBD1C" transform="translate(670,525)"/>
<path d="M0 0 C0 0.33 0 0.66 0 1 C-6.93 0.505 -6.93 0.505 -14 0 C-14 -0.33 -14 -0.66 -14 -1 C-8.51053913 -2.12029814 -5.16569441 -1.79217969 0 0 Z " fill="#FDCD53" transform="translate(213,481)"/>
<path d="M0 0 C-1.4375 1.5625 -1.4375 1.5625 -4 3 C-7.05380927 2.96846324 -9.99653222 2.53266629 -13 2 C-13 1.67 -13 1.34 -13 1 C-8.60563789 0.14256349 -4.47427924 -0.08948558 0 0 Z " fill="#FECF46" transform="translate(520,299)"/>
<path d="M0 0 C0.66 0.33 1.32 0.66 2 1 C-0.83430453 4.2542015 -2.68607774 5.5206753 -7 6 C-4.74259377 3.66475218 -2.7194239 1.81294927 0 0 Z " fill="#589943" transform="translate(757,826)"/>
<path d="M0 0 C0.66 0.33 1.32 0.66 2 1 C0.38405168 3.04119788 -1.2856382 5.04072937 -3 7 C-3.66 7 -4.32 7 -5 7 C-3.70700306 4.11562221 -2.34058637 2.12780579 0 0 Z " fill="#FDAB26" transform="translate(341,710)"/>
<path d="M0 0 C1.32 0.33 2.64 0.66 4 1 C1.03 3.475 1.03 3.475 -2 6 C-2.66 5.67 -3.32 5.34 -4 5 C-2.68 3.35 -1.36 1.7 0 0 Z " fill="#51913D" transform="translate(432,703)"/>
<path d="M0 0 C0.33 0 0.66 0 1 0 C0.125 6.75 0.125 6.75 -1 9 C-1.66 9 -2.32 9 -3 9 C-2.44271087 5.65626525 -1.64826111 2.96687001 0 0 Z " fill="#7CBB4A" transform="translate(899,657)"/>
<path d="M0 0 C2.02045442 0.60183749 4.02111039 1.27306096 6 2 C6.33 2.66 6.66 3.32 7 4 C5.68 4.33 4.36 4.66 3 5 C3 4.34 3 3.68 3 3 C1.68 2.67 0.36 2.34 -1 2 C-0.67 1.34 -0.34 0.68 0 0 Z " fill="#6AA550" transform="translate(561,640)"/>
<path d="M0 0 C4.455 0.99 4.455 0.99 9 2 C8.67 2.66 8.34 3.32 8 4 C5.69 3.67 3.38 3.34 1 3 C0.67 2.01 0.34 1.02 0 0 Z " fill="#FDBA3F" transform="translate(409,577)"/>
<path d="M0 0 C0.99 0 1.98 0 3 0 C4.75 1.8125 4.75 1.8125 6 4 C5.67 4.99 5.34 5.98 5 7 C3.29115995 5.37660195 1.62553283 3.70680947 0 2 C0 1.34 0 0.68 0 0 Z " fill="#FDC127" transform="translate(697,369)"/>
<path d="M0 0 C0.66 0.99 1.32 1.98 2 3 C-4.0546875 3.1953125 -4.0546875 3.1953125 -6 3 C-6.66 2.34 -7.32 1.68 -8 1 C-5.21136993 -0.39431504 -3.07921132 -0.25660094 0 0 Z " fill="#FDCB45" transform="translate(317,343)"/>
<path d="M0 0 C2.3125 0.1875 2.3125 0.1875 5 1 C6.8125 3.5625 6.8125 3.5625 8 6 C4.63408134 4.55746343 2.48952921 2.66735273 0 0 Z " fill="#FDBC26" transform="translate(298,302)"/>
<path d="M0 0 C2.83374881 3.20336822 3.5205537 5.78087253 4 10 C3.67 9.34 3.34 8.68 3 8 C2.34 8 1.68 8 1 8 C0.67 5.36 0.34 2.72 0 0 Z " fill="#FEBA24" transform="translate(416,188)"/>
<path d="M0 0 C2.97 0.99 5.94 1.98 9 3 C9 3.33 9 3.66 9 4 C6.36 3.67 3.72 3.34 1 3 C0.67 2.01 0.34 1.02 0 0 Z " fill="#4C8F3F" transform="translate(398,864)"/>
<path d="M0 0 C3.23475448 1.61737724 4.70572021 2.47629223 7 5 C6.67 5.99 6.34 6.98 6 8 C4.02 5.36 2.04 2.72 0 0 Z " fill="#52953B" transform="translate(731,771)"/>
<path d="M0 0 C4.16138263 -0.08159574 7.9472484 0.01751476 12 1 C12 1.33 12 1.66 12 2 C9.36 2.33 6.72 2.66 4 3 C4 2.34 4 1.68 4 1 C2.68 0.67 1.36 0.34 0 0 Z " fill="#FDC555" transform="translate(274,544)"/>
<path d="M0 0 C0.99 0.33 1.98 0.66 3 1 C0.03 3.475 0.03 3.475 -3 6 C-3.66 5.67 -4.32 5.34 -5 5 C-3.35 3.35 -1.7 1.7 0 0 Z " fill="#FDCA44" transform="translate(815,312)"/>
<path d="M0 0 C3.36591866 1.44253657 5.51047079 3.33264727 8 6 C5.6875 5.8125 5.6875 5.8125 3 5 C1.1875 2.4375 1.1875 2.4375 0 0 Z " fill="#FDBB26" transform="translate(239,291)"/>
<path d="M0 0 C0.66 0.66 1.32 1.32 2 2 C1.01 2.66 0.02 3.32 -1 4 C-0.67 2.68 -0.34 1.36 0 0 Z " fill="#62984C" transform="translate(337,836)"/>
<path d="M0 0 C1.65 0 3.3 0 5 0 C5 0.33 5 0.66 5 1 C3.35 1 1.7 1 0 1 C0 0.67 0 0.34 0 0 Z " fill="#609E4E" transform="translate(577,895)"/>
<path d="M0 0 C1.32 0.33 2.64 0.66 4 1 C3.01 1.33 2.02 1.66 1 2 C0.67 1.34 0.34 0.68 0 0 Z " fill="#5E994C" transform="translate(497,894)"/>
<path d="M0 0 C0.99 0.33 1.98 0.66 3 1 C2.34 1.66 1.68 2.32 1 3 C0.67 2.01 0.34 1.02 0 0 Z " fill="#5D954B" transform="translate(402,869)"/>
<path d="M0 0 C4 1 4 1 4 1 Z " fill="#609A4D" transform="translate(508,895)"/>
<path d="M0 0 C4 1 4 1 4 1 Z " fill="#A5C958" transform="translate(759,552)"/>
<path d="M0 0 C4 1 4 1 4 1 Z " fill="#F8CC3B" transform="translate(643,535)"/>
<path d="M0 0 C0.99 0.495 0.99 0.495 2 1 C1.01 1.495 1.01 1.495 0 2 C0 1.34 0 0.68 0 0 Z " fill="#609C4E" transform="translate(588,894)"/>
<path d="M0 0 C0.66 0 1.32 0 2 0 C1.67 0.66 1.34 1.32 1 2 C0.67 1.34 0.34 0.68 0 0 Z " fill="#6DA652" transform="translate(766,808)"/>
<path d="M0 0 C3 1 3 1 3 1 Z " fill="#FEC532" transform="translate(224,485)"/>
<path d="M0 0 C3 1 3 1 3 1 Z " fill="#FFC536" transform="translate(207,483)"/>
<path d="M0 0 C3 1 3 1 3 1 Z " fill="#F2C538" transform="translate(917,479)"/>
<path d="M0 0 C3 1 3 1 3 1 Z " fill="#FBC32E" transform="translate(245,456)"/>
<path d="M0 0 C3 1 3 1 3 1 Z " fill="#FBC737" transform="translate(597,304)"/>
<path d="M0 0 C3 1 3 1 3 1 Z " fill="#FDCA33" transform="translate(480,304)"/>
<path d="" fill="#5E9A4D" transform="translate(0,0)"/>
<path d="M0 0 C2 1 2 1 2 1 Z " fill="#5E994C" transform="translate(450,885)"/>
<path d="" fill="#5D964B" transform="translate(0,0)"/>
<path d="M0 0 C2 1 2 1 2 1 Z " fill="#639E4C" transform="translate(700,861)"/>
<path d="M0 0 C2 1 2 1 2 1 Z " fill="#66A150" transform="translate(731,846)"/>
<path d="M0 0 C2 1 2 1 2 1 Z " fill="#6BA253" transform="translate(742,839)"/>
<path d="" fill="#8AB858" transform="translate(0,0)"/>
<path d="" fill="#F4AD37" transform="translate(0,0)"/>
<path d="M0 0 C2 1 2 1 2 1 Z " fill="#78A64F" transform="translate(437,697)"/>
<path d="" fill="#8EC65B" transform="translate(0,0)"/>
<path d="M0 0 C2 1 2 1 2 1 Z " fill="#75A44C" transform="translate(485,664)"/>
<path d="M0 0 C2 1 2 1 2 1 Z " fill="#F1BB43" transform="translate(422,647)"/>
<path d="" fill="#F5B035" transform="translate(0,0)"/>
<path d="" fill="#F5AF35" transform="translate(0,0)"/>
<path d="M0 0 C2 1 2 1 2 1 Z " fill="#F8B83C" transform="translate(413,576)"/>
<path d="M0 0 C2 1 2 1 2 1 Z " fill="#FBBB3B" transform="translate(389,568)"/>
<path d="M0 0 C2 1 2 1 2 1 Z " fill="#FCB832" transform="translate(326,552)"/>
<path d="M0 0 C2 1 2 1 2 1 Z " fill="#9EC353" transform="translate(800,544)"/>
<path d="M0 0 C2 1 2 1 2 1 Z " fill="#A1C955" transform="translate(797,544)"/>
<path d="M0 0 C2 1 2 1 2 1 Z " fill="#F8CD3C" transform="translate(620,543)"/>
<path d="M0 0 C2 1 2 1 2 1 Z " fill="#FACA3A" transform="translate(472,543)"/>
<path d="M0 0 C2 1 2 1 2 1 Z " fill="#FFC833" transform="translate(347,509)"/>
<path d="" fill="#F2C933" transform="translate(0,0)"/>
<path d="" fill="#FACE3C" transform="translate(0,0)"/>
<path d="M0 0 C2 1 2 1 2 1 Z " fill="#F6C73C" transform="translate(870,487)"/>
<path d="M0 0 C2 1 2 1 2 1 Z " fill="#F9CD3C" transform="translate(876,486)"/>
<path d="M0 0 C2 1 2 1 2 1 Z " fill="#F4CA3A" transform="translate(894,483)"/>
<path d="" fill="#FECB39" transform="translate(0,0)"/>
<path d="M0 0 C2 1 2 1 2 1 Z " fill="#F7C533" transform="translate(902,449)"/>
<path d="M0 0 C2 1 2 1 2 1 Z " fill="#FCCA39" transform="translate(416,336)"/>
<path d="" fill="#FAC733" transform="translate(0,0)"/>
<path d="M0 0 C2 1 2 1 2 1 Z " fill="#FEC72F" transform="translate(536,296)"/>
<path d="M0 0 C2 1 2 1 2 1 Z " fill="#FEC833" transform="translate(528,296)"/>
<path d="" fill="#F6C132" transform="translate(0,0)"/>
<path d="" fill="#FBC535" transform="translate(0,0)"/>
<path d="" fill="#ECB934" transform="translate(0,0)"/>
<path d="" fill="#2E481A" transform="translate(0,0)"/>
<path d="" fill="#63A052" transform="translate(0,0)"/>
<path d="" fill="#639E4F" transform="translate(0,0)"/>
<path d="" fill="#5B9949" transform="translate(0,0)"/>
<path d="" fill="#5C984B" transform="translate(0,0)"/>
<path d="" fill="#5C974D" transform="translate(0,0)"/>
<path d="" fill="#609C4D" transform="translate(0,0)"/>
<path d="" fill="#5E994D" transform="translate(0,0)"/>
<path d="" fill="#5F9C4D" transform="translate(0,0)"/>
<path d="" fill="#5E994C" transform="translate(0,0)"/>
<path d="" fill="#5E9B4D" transform="translate(0,0)"/>
<path d="" fill="#5D984B" transform="translate(0,0)"/>
<path d="" fill="#629E4F" transform="translate(0,0)"/>
<path d="" fill="#5F9B4D" transform="translate(0,0)"/>
<path d="" fill="#60984D" transform="translate(0,0)"/>
<path d="" fill="#609A4E" transform="translate(0,0)"/>
<path d="" fill="#5E984D" transform="translate(0,0)"/>
<path d="" fill="#5E994B" transform="translate(0,0)"/>
<path d="" fill="#5B974C" transform="translate(0,0)"/>
<path d="" fill="#5D994B" transform="translate(0,0)"/>
<path d="" fill="#649B4B" transform="translate(0,0)"/>
<path d="" fill="#589347" transform="translate(0,0)"/>
<path d="" fill="#5F974B" transform="translate(0,0)"/>
<path d="" fill="#5D964C" transform="translate(0,0)"/>
<path d="" fill="#5C974B" transform="translate(0,0)"/>
<path d="" fill="#5E964C" transform="translate(0,0)"/>
<path d="" fill="#629C4E" transform="translate(0,0)"/>
<path d="" fill="#5C954C" transform="translate(0,0)"/>
<path d="" fill="#619F4D" transform="translate(0,0)"/>
<path d="" fill="#61994C" transform="translate(0,0)"/>
<path d="" fill="#629F4D" transform="translate(0,0)"/>
<path d="" fill="#63994D" transform="translate(0,0)"/>
<path d="" fill="#659E4F" transform="translate(0,0)"/>
<path d="" fill="#64A04F" transform="translate(0,0)"/>
<path d="" fill="#5F964A" transform="translate(0,0)"/>
<path d="" fill="#5D9447" transform="translate(0,0)"/>
<path d="" fill="#5B9244" transform="translate(0,0)"/>
<path d="" fill="#69A04E" transform="translate(0,0)"/>
<path d="" fill="#71A457" transform="translate(0,0)"/>
<path d="" fill="#71994A" transform="translate(0,0)"/>
<path d="" fill="#76A254" transform="translate(0,0)"/>
<path d="" fill="#73AE57" transform="translate(0,0)"/>
<path d="" fill="#76A350" transform="translate(0,0)"/>
<path d="" fill="#6E9F4A" transform="translate(0,0)"/>
<path d="" fill="#E1AE38" transform="translate(0,0)"/>
<path d="" fill="#E0AE3C" transform="translate(0,0)"/>
<path d="" fill="#8ABD57" transform="translate(0,0)"/>
<path d="" fill="#8FBC5E" transform="translate(0,0)"/>
<path d="" fill="#E9B03C" transform="translate(0,0)"/>
<path d="" fill="#71A14E" transform="translate(0,0)"/>
<path d="" fill="#72A14D" transform="translate(0,0)"/>
<path d="" fill="#F1B037" transform="translate(0,0)"/>
<path d="" fill="#F2B137" transform="translate(0,0)"/>
<path d="" fill="#6EAC54" transform="translate(0,0)"/>
<path d="" fill="#E8B33C" transform="translate(0,0)"/>
<path d="" fill="#8DBC5E" transform="translate(0,0)"/>
<path d="" fill="#72AB53" transform="translate(0,0)"/>
<path d="" fill="#6DAA4F" transform="translate(0,0)"/>
<path d="" fill="#77A450" transform="translate(0,0)"/>
<path d="" fill="#ECB538" transform="translate(0,0)"/>
<path d="" fill="#F1B03A" transform="translate(0,0)"/>
<path d="" fill="#F3B035" transform="translate(0,0)"/>
<path d="" fill="#75A44C" transform="translate(0,0)"/>
<path d="" fill="#79A651" transform="translate(0,0)"/>
<path d="" fill="#73AE56" transform="translate(0,0)"/>
<path d="" fill="#75A34F" transform="translate(0,0)"/>
<path d="" fill="#75A34D" transform="translate(0,0)"/>
<path d="" fill="#F2AF32" transform="translate(0,0)"/>
<path d="" fill="#91C25C" transform="translate(0,0)"/>
<path d="" fill="#72A148" transform="translate(0,0)"/>
<path d="" fill="#F3B038" transform="translate(0,0)"/>
<path d="" fill="#7AA54E" transform="translate(0,0)"/>
<path d="" fill="#7FAC57" transform="translate(0,0)"/>
<path d="" fill="#83AC4C" transform="translate(0,0)"/>
<path d="" fill="#F3B037" transform="translate(0,0)"/>
<path d="" fill="#91C360" transform="translate(0,0)"/>
<path d="" fill="#F3AD30" transform="translate(0,0)"/>
<path d="" fill="#72AB52" transform="translate(0,0)"/>
<path d="" fill="#F4AD36" transform="translate(0,0)"/>
<path d="" fill="#94C25C" transform="translate(0,0)"/>
<path d="" fill="#87BD58" transform="translate(0,0)"/>
<path d="" fill="#7DA953" transform="translate(0,0)"/>
<path d="" fill="#8ABC58" transform="translate(0,0)"/>
<path d="" fill="#F4AC33" transform="translate(0,0)"/>
<path d="" fill="#94C25C" transform="translate(0,0)"/>
<path d="" fill="#EBB53C" transform="translate(0,0)"/>
<path d="" fill="#F6B037" transform="translate(0,0)"/>
<path d="" fill="#7CA851" transform="translate(0,0)"/>
<path d="" fill="#7DA753" transform="translate(0,0)"/>
<path d="" fill="#82A952" transform="translate(0,0)"/>
<path d="" fill="#EEB63C" transform="translate(0,0)"/>
<path d="" fill="#88BF55" transform="translate(0,0)"/>
<path d="" fill="#7FA851" transform="translate(0,0)"/>
<path d="" fill="#6FAC56" transform="translate(0,0)"/>
<path d="" fill="#7FA851" transform="translate(0,0)"/>
<path d="" fill="#8DC35A" transform="translate(0,0)"/>
<path d="" fill="#F6AD35" transform="translate(0,0)"/>
<path d="" fill="#F6B137" transform="translate(0,0)"/>
<path d="" fill="#8BBE5A" transform="translate(0,0)"/>
<path d="" fill="#F3AE37" transform="translate(0,0)"/>
<path d="" fill="#F0B43C" transform="translate(0,0)"/>
<path d="" fill="#F6AF37" transform="translate(0,0)"/>
<path d="" fill="#71A854" transform="translate(0,0)"/>
<path d="" fill="#8EC75A" transform="translate(0,0)"/>
<path d="" fill="#91C75D" transform="translate(0,0)"/>
<path d="" fill="#93C65D" transform="translate(0,0)"/>
<path d="" fill="#77A451" transform="translate(0,0)"/>
<path d="" fill="#91C359" transform="translate(0,0)"/>
<path d="" fill="#F1B542" transform="translate(0,0)"/>
<path d="" fill="#F8AD30" transform="translate(0,0)"/>
<path d="" fill="#F8AE36" transform="translate(0,0)"/>
<path d="" fill="#F5AE34" transform="translate(0,0)"/>
<path d="" fill="#F6AB2F" transform="translate(0,0)"/>
<path d="" fill="#72A957" transform="translate(0,0)"/>
<path d="" fill="#8BC252" transform="translate(0,0)"/>
<path d="" fill="#88BE54" transform="translate(0,0)"/>
<path d="" fill="#70A94F" transform="translate(0,0)"/>
<path d="" fill="#8BBA58" transform="translate(0,0)"/>
<path d="" fill="#F0B63E" transform="translate(0,0)"/>
<path d="" fill="#F5B73A" transform="translate(0,0)"/>
<path d="" fill="#F6B037" transform="translate(0,0)"/>
<path d="" fill="#F7AF34" transform="translate(0,0)"/>
<path d="" fill="#96C960" transform="translate(0,0)"/>
<path d="" fill="#F7B135" transform="translate(0,0)"/>
<path d="" fill="#90C256" transform="translate(0,0)"/>
<path d="" fill="#7EAE55" transform="translate(0,0)"/>
<path d="" fill="#EDB642" transform="translate(0,0)"/>
<path d="" fill="#79AE51" transform="translate(0,0)"/>
<path d="" fill="#7CAA52" transform="translate(0,0)"/>
<path d="" fill="#93C65B" transform="translate(0,0)"/>
<path d="" fill="#8CC155" transform="translate(0,0)"/>
<path d="" fill="#7FAF55" transform="translate(0,0)"/>
<path d="" fill="#8AB355" transform="translate(0,0)"/>
<path d="" fill="#ECB843" transform="translate(0,0)"/>
<path d="" fill="#F4AF37" transform="translate(0,0)"/>
<path d="" fill="#F0B73D" transform="translate(0,0)"/>
<path d="" fill="#90C25C" transform="translate(0,0)"/>
<path d="" fill="#9CC754" transform="translate(0,0)"/>
<path d="" fill="#9CC556" transform="translate(0,0)"/>
<path d="" fill="#F4AF37" transform="translate(0,0)"/>
<path d="" fill="#F5B038" transform="translate(0,0)"/>
<path d="" fill="#FFBB34" transform="translate(0,0)"/>
<path d="" fill="#F9BB3B" transform="translate(0,0)"/>
<path d="" fill="#F9BA38" transform="translate(0,0)"/>
<path d="" fill="#A9CB55" transform="translate(0,0)"/>
<path d="" fill="#F9B535" transform="translate(0,0)"/>
<path d="" fill="#A6CA56" transform="translate(0,0)"/>
<path d="" fill="#FEB82F" transform="translate(0,0)"/>
<path d="" fill="#F9CF3E" transform="translate(0,0)"/>
<path d="" fill="#F7CC3A" transform="translate(0,0)"/>
<path d="" fill="#F9D040" transform="translate(0,0)"/>
<path d="" fill="#F7B039" transform="translate(0,0)"/>
<path d="" fill="#FBD03D" transform="translate(0,0)"/>
<path d="" fill="#F7B035" transform="translate(0,0)"/>
<path d="" fill="#A3CA54" transform="translate(0,0)"/>
<path d="" fill="#FDB733" transform="translate(0,0)"/>
<path d="" fill="#A8CA57" transform="translate(0,0)"/>
<path d="" fill="#FDBA38" transform="translate(0,0)"/>
<path d="" fill="#FACE3F" transform="translate(0,0)"/>
<path d="" fill="#F7B23C" transform="translate(0,0)"/>
<path d="" fill="#FDCE36" transform="translate(0,0)"/>
<path d="" fill="#A2C755" transform="translate(0,0)"/>
<path d="" fill="#FEB933" transform="translate(0,0)"/>
<path d="" fill="#F9CA3D" transform="translate(0,0)"/>
<path d="" fill="#FCCD38" transform="translate(0,0)"/>
<path d="" fill="#FDCE35" transform="translate(0,0)"/>
<path d="" fill="#FFBB35" transform="translate(0,0)"/>
<path d="" fill="#A3CB5A" transform="translate(0,0)"/>
<path d="" fill="#F4AF39" transform="translate(0,0)"/>
<path d="" fill="#F8B632" transform="translate(0,0)"/>
<path d="" fill="#F8D13B" transform="translate(0,0)"/>
<path d="" fill="#FFCC3C" transform="translate(0,0)"/>
<path d="" fill="#FFCC39" transform="translate(0,0)"/>
<path d="" fill="#FFBD35" transform="translate(0,0)"/>
<path d="" fill="#A4CA59" transform="translate(0,0)"/>
<path d="" fill="#A1C953" transform="translate(0,0)"/>
<path d="" fill="#A3CA56" transform="translate(0,0)"/>
<path d="" fill="#FCB833" transform="translate(0,0)"/>
<path d="" fill="#A9CA56" transform="translate(0,0)"/>
<path d="" fill="#FDCC39" transform="translate(0,0)"/>
<path d="" fill="#A4C954" transform="translate(0,0)"/>
<path d="" fill="#A3C955" transform="translate(0,0)"/>
<path d="" fill="#FACE3D" transform="translate(0,0)"/>
<path d="" fill="#A3C654" transform="translate(0,0)"/>
<path d="" fill="#FDC935" transform="translate(0,0)"/>
<path d="" fill="#F3CC3B" transform="translate(0,0)"/>
<path d="" fill="#F9CE3C" transform="translate(0,0)"/>
<path d="" fill="#F5D13C" transform="translate(0,0)"/>
<path d="" fill="#F5D03B" transform="translate(0,0)"/>
<path d="" fill="#FFCC3B" transform="translate(0,0)"/>
<path d="" fill="#F8CD3D" transform="translate(0,0)"/>
<path d="" fill="#FFCD37" transform="translate(0,0)"/>
<path d="" fill="#FFCA32" transform="translate(0,0)"/>
<path d="" fill="#FFCB37" transform="translate(0,0)"/>
<path d="" fill="#FFCA34" transform="translate(0,0)"/>
<path d="" fill="#FFC936" transform="translate(0,0)"/>
<path d="" fill="#F6CF3D" transform="translate(0,0)"/>
<path d="" fill="#F9CB3B" transform="translate(0,0)"/>
<path d="" fill="#FFCB38" transform="translate(0,0)"/>
<path d="" fill="#F5CC3B" transform="translate(0,0)"/>
<path d="" fill="#F6CF3F" transform="translate(0,0)"/>
<path d="" fill="#F6CC3F" transform="translate(0,0)"/>
<path d="" fill="#FCCE3D" transform="translate(0,0)"/>
<path d="" fill="#F9C73B" transform="translate(0,0)"/>
<path d="" fill="#F8C538" transform="translate(0,0)"/>
<path d="" fill="#FFC933" transform="translate(0,0)"/>
<path d="" fill="#FECD36" transform="translate(0,0)"/>
<path d="" fill="#F1C83A" transform="translate(0,0)"/>
<path d="" fill="#FEC436" transform="translate(0,0)"/>
<path d="" fill="#EFC439" transform="translate(0,0)"/>
<path d="" fill="#FCCD38" transform="translate(0,0)"/>
<path d="" fill="#FAC83A" transform="translate(0,0)"/>
<path d="" fill="#FDCD37" transform="translate(0,0)"/>
<path d="" fill="#FFCF38" transform="translate(0,0)"/>
<path d="" fill="#EDB632" transform="translate(0,0)"/>
<path d="" fill="#EDB638" transform="translate(0,0)"/>
<path d="" fill="#FEC834" transform="translate(0,0)"/>
<path d="" fill="#E5BA2B" transform="translate(0,0)"/>
<path d="" fill="#F3C22F" transform="translate(0,0)"/>
<path d="" fill="#FCC934" transform="translate(0,0)"/>
<path d="" fill="#FFCB36" transform="translate(0,0)"/>
<path d="" fill="#FBCC36" transform="translate(0,0)"/>
<path d="" fill="#FFCB36" transform="translate(0,0)"/>
<path d="" fill="#FDC936" transform="translate(0,0)"/>
<path d="" fill="#FFCE37" transform="translate(0,0)"/>
<path d="" fill="#FFCC38" transform="translate(0,0)"/>
<path d="" fill="#FDCA35" transform="translate(0,0)"/>
<path d="" fill="#FAC73A" transform="translate(0,0)"/>
<path d="" fill="#FDCC34" transform="translate(0,0)"/>
<path d="" fill="#FFCD34" transform="translate(0,0)"/>
<path d="" fill="#FFCD36" transform="translate(0,0)"/>
<path d="" fill="#FEC834" transform="translate(0,0)"/>
<path d="" fill="#FFC336" transform="translate(0,0)"/>
<path d="" fill="#FCC635" transform="translate(0,0)"/>
<path d="" fill="#FBC736" transform="translate(0,0)"/>
<path d="" fill="#FEC838" transform="translate(0,0)"/>
<path d="" fill="#FCC92D" transform="translate(0,0)"/>
<path d="" fill="#FFC72E" transform="translate(0,0)"/>
<path d="" fill="#F9C138" transform="translate(0,0)"/>
<path d="" fill="#FAC337" transform="translate(0,0)"/>
<path d="" fill="#FECB35" transform="translate(0,0)"/>
<path d="" fill="#FBC736" transform="translate(0,0)"/>
<path d="" fill="#F6C736" transform="translate(0,0)"/>
<path d="" fill="#FEC736" transform="translate(0,0)"/>
<path d="" fill="#FBC337" transform="translate(0,0)"/>
<path d="" fill="#F9C835" transform="translate(0,0)"/>
<path d="" fill="#FAC632" transform="translate(0,0)"/>
<path d="" fill="#FFCD38" transform="translate(0,0)"/>
<path d="" fill="#F8C637" transform="translate(0,0)"/>
<path d="" fill="#F8C434" transform="translate(0,0)"/>
<path d="" fill="#FFCC37" transform="translate(0,0)"/>
<path d="" fill="#FDC934" transform="translate(0,0)"/>
<path d="" fill="#FBC737" transform="translate(0,0)"/>
<path d="" fill="#FBC531" transform="translate(0,0)"/>
<path d="" fill="#FFCA33" transform="translate(0,0)"/>
<path d="" fill="#FFC933" transform="translate(0,0)"/>
<path d="" fill="#F9C634" transform="translate(0,0)"/>
<path d="" fill="#F6C32D" transform="translate(0,0)"/>
<path d="" fill="#F9C534" transform="translate(0,0)"/>
<path d="" fill="#FCC635" transform="translate(0,0)"/>
<path d="" fill="#F9C533" transform="translate(0,0)"/>
<path d="" fill="#F0C138" transform="translate(0,0)"/>
<path d="" fill="#F2BB30" transform="translate(0,0)"/>
<path d="" fill="#F7C230" transform="translate(0,0)"/>
<path d="" fill="#F4C234" transform="translate(0,0)"/>
<path d="" fill="#E7B836" transform="translate(0,0)"/>
<path d="" fill="#F6C02B" transform="translate(0,0)"/>
<path d="" fill="#F8C33C" transform="translate(0,0)"/>
<path d="" fill="#E5B530" transform="translate(0,0)"/>
<path d="" fill="#E3B336" transform="translate(0,0)"/>
<path d="" fill="#F4C12E" transform="translate(0,0)"/>
<path d="" fill="#F2BF31" transform="translate(0,0)"/>
<path d="" fill="#F6C132" transform="translate(0,0)"/>
<path d="" fill="#F9C532" transform="translate(0,0)"/>
<path d="" fill="#F8C336" transform="translate(0,0)"/>
<path d="" fill="#FEC635" transform="translate(0,0)"/>
<path d="" fill="#FCC734" transform="translate(0,0)"/>
<path d="" fill="#F9C536" transform="translate(0,0)"/>
<path d="" fill="#F8C231" transform="translate(0,0)"/>
<path d="" fill="#FDC631" transform="translate(0,0)"/>
<path d="" fill="#F9C538" transform="translate(0,0)"/>
<path d="" fill="#FCC536" transform="translate(0,0)"/>
<path d="" fill="#F7C333" transform="translate(0,0)"/>
<path d="" fill="#F7C331" transform="translate(0,0)"/>
<path d="" fill="#F9C430" transform="translate(0,0)"/>
<path d="" fill="#F8C431" transform="translate(0,0)"/>
<path d="" fill="#F7C231" transform="translate(0,0)"/>
<path d="" fill="#F9C334" transform="translate(0,0)"/>
<path d="" fill="#F9C32F" transform="translate(0,0)"/>
<path d="" fill="#F7C22F" transform="translate(0,0)"/>
<path d="" fill="#F6BD2E" transform="translate(0,0)"/>
<path d="" fill="#F7C233" transform="translate(0,0)"/>
<path d="" fill="#F5C02E" transform="translate(0,0)"/>
<path d="" fill="#F1BF31" transform="translate(0,0)"/>
<path d="" fill="#EDBA35" transform="translate(0,0)"/>
<path d="" fill="#EDBB36" transform="translate(0,0)"/>
<path d="" fill="#EDBA33" transform="translate(0,0)"/>
<path d="" fill="#E4B435" transform="translate(0,0)"/>
<path d="" fill="#E6B636" transform="translate(0,0)"/>
<path d="" fill="#E2B333" transform="translate(0,0)"/>
</svg>
